PathFileType	4	(X/Y/Z)	C:\Users\Owen\Repositories\CapacitiveSensingKinematics\CSOptimalControl\OutputData\FilteredIMUAccels.trc
DataRate	CameraRate	NumFrames	NumMarkers	Units	OrigDataRate	OrigDataStartFrame	OrigNumFrames
100	100	15	8	m	100	0	7057
Frame#	Time	/bodyset/torso/torso_imu_offset			/bodyset/pelvis/pelvis_imu_offset			/bodyset/tibia_r/tibia_r_imu_offset			/bodyset/femur_r/femur_r_imu_offset			/bodyset/tibia_l/tibia_l_imu_offset			/bodyset/femur_l/femur_l_imu_offset			/bodyset/toes_r/toes_r_imu_offset			/bodyset/toes_l/toes_l_imu_offset			
		X1	Y1	Z1	X2	Y2	Z2	X3	Y3	Z3	X4	Y4	Z4	X5	Y5	Z5	X6	Y6	Z6	X7	Y7	Z7	X8	Y8	Z8	

1	0	8.86906171915448	0.4358507422432308	6.801894190076762	9.555092736436363	-0.5237455203717766	2.516717212978046	9.50543222208913	1.588640790050861	2.604565062253712	9.724955644359884	-1.020453126175779	1.340084388617965	9.653703982767309	-0.872328073737309	1.937177141540345	9.776047474006063	-0.3320861088788168	-0.5998358165012107	4.194757186086604	0.6616598088346721	9.035361498823281	3.515731152508431	0.6258920284393905	11.86269899876743	
2	0.01	8.888475936901331	0.4364128123058486	6.80929713466449	9.572860000825209	-0.5222412904122764	2.501929756826237	9.535451176825003	1.552269842125867	2.538669977531958	9.72958283606015	-1.014839761712079	1.297105538626163	9.631236990142932	-0.9189616032550421	1.958594035376904	9.790837713301258	-0.3489003287568001	-0.6043634512186571	4.215555015732752	0.6457454026226844	9.041122995690097	3.5320540780187	0.61564321274597	11.86680269919371	
3	0.02	8.906952779021664	0.4353302908534296	6.814672117549615	9.588348905731904	-0.5197447413246901	2.488725750134534	9.55398652583167	1.550957656599587	2.476980590426707	9.730731032607036	-1.004944250410301	1.258088589331539	9.610723797377076	-0.9684649891374105	1.976948148644606	9.804826257905553	-0.3680306489106722	-0.6017702440730623	4.236014349613463	0.6336004033353851	9.044717842026941	3.544400223925713	0.6055890336262691	11.87059281329917	
4	0.03	8.923270863158374	0.4317574014898174	6.816980100700832	9.599426487372407	-0.5168771559591829	2.477526106577216	9.554315117151038	1.608824710155	2.424843826479981	9.726094243155289	-0.987612683631979	1.225865620070696	9.593516605117228	-1.023562853581241	1.990136181365669	9.817651050740862	-0.3908646482583375	-0.5897500974173654	4.25418492065654	0.6256479511919438	9.044631816758265	3.550700713934949	0.5965376393721837	11.87341199458258	
5	0.04	8.936564956153209	0.4264041011140224	6.817066474494054	9.604887907542329	-0.5154532361089935	2.467153059341995	9.53827198117637	1.729277659515064	2.3878268258338	9.71629594504218	-0.9618915266995045	1.202047864062802	9.580423687615525	-1.085301765065412	1.998718438663227	9.828456325501641	-0.4170696906890105	-0.571861449294346	4.267476822223076	0.6204168752882235	9.041096828068481	3.551097091716552	0.5895905451650254	11.87479628275161	
6	0.05	8.946833966754411	0.4213254557026266	6.817288181869341	9.605605504511939	-0.5171409611247573	2.455897984538922	9.515440012612295	1.88951071274993	2.368925364606969	9.704931971069481	-0.9296537948722803	1.187132030145377	9.571542282492148	-1.151035672323193	2.005425284426221	9.835185388804117	-0.4454531810129804	-0.5544970474874686	4.274450770590587	0.6169319025024208	9.036273265704715	3.54758400428585	0.5853333985826825	11.87522457410271	
7	0.06	8.954282145327568	0.4183054525395919	6.819591672794135	9.604469295363124	-0.5223075910198239	2.443488564146002	9.496903622372727	2.048335328359948	2.366729753538604	9.696022597151293	-0.8953429070403708	1.180506175761966	9.565698988882069	-1.214109322737263	2.011972030445696	9.836197387633614	-0.475275567469706	-0.5425982752956731	4.27536368093381	0.6145676510790274	9.032748394744093	3.543330081331732	0.5832067656681745	11.87579837498576	
8	0.07000000000000001	8.958733558431307	0.4172821202497552	6.823532866280638	9.604830097445356	-0.5292035392569279	2.431606856739827	9.489081277866196	2.164385048607437	2.3776426058293	9.691986041888326	-0.8649402937679724	1.179795655621152	9.560918304272509	-1.266284700346213	2.017941269670839	9.832076480658694	-0.5059812205283504	-0.5380666841846011	4.271841942775765	0.6125340438588052	9.032080128598778	3.541184007113146	0.5817487716603738	11.87678886069883	
9	0.08	8.959677965228112	0.4164095039680467	6.827137216895985	9.608959700014353	-0.5345877226576085	2.422578865388777	9.4919215704242	2.213837309574604	2.398107451576487	9.693244003827351	-0.8444317168030284	1.180072981007641	9.555937592516488	-1.301711420609938	2.022882521000895	9.825216449497926	-0.5357126307819763	-0.5403373645297338	4.266113291709896	0.6105872686344082	9.034381060250571	3.541725001540033	0.5800773525319917	11.87725750962892	
10	0.09	8.956332653385681	0.4136598377085878	6.830760060654494	9.617550517592788	-0.5357300101588767	2.417791431020136	9.50093729021331	2.198122983005202	2.42370792160682	9.698421479849312	-0.8381752084207353	1.175747654908481	9.550597074823969	-1.318491304345491	2.027384550199297	9.818217206972507	-0.5613558441828375	-0.5465694643085606	4.26012610595146	0.6092292065239443	9.038279751791244	3.543693416434361	0.5785049835013618	11.87602456979541	
11	0.1	8.94846964559458	0.4084037673585422	6.838379586404142	9.629757427666888	-0.5318447982659877	2.416558620596903	9.510517491213365	2.138425533924075	2.448515652215906	9.705021998810363	-0.8471360732185252	1.164641247516261	9.545347236487187	-1.316494731320786	2.032071632539642	9.812636695837066	-0.5802846434469444	-0.5524289307945996	4.255549203974284	0.6089746374484473	9.041414086782556	3.548005485159107	0.5769817776985846	11.871734206275	
12	0.11	8.938004601108833	0.4013962480792095	6.85377888178974	9.643520370777534	-0.5239199196783775	2.416315316524756	9.516517430375139	2.062671840980434	2.466455698669205	9.710770315516069	-0.8679015142955439	1.149187053581978	9.541338180928937	-1.296091974986759	2.036630768779954	9.808109599389514	-0.5910726969259351	-0.5544428484598509	4.25497059246697	0.610476562486563	9.041374714195797	3.561172697132983	0.5735364051370651	11.8618690157138	
13	0.12	8.929864154827005	0.3936040678769101	6.878729827057324	9.656446467200206	-0.5138933180917181	2.41443418200998	9.517466455585609	1.995175785360589	2.473013571327802	9.714569194532945	-0.8940874555167264	1.133742129944655	9.540035820375138	-1.260826197480869	2.040093581031718	9.802091647901975	-0.5930064365527092	-0.551696317650457	4.263657458785803	0.6156735970253482	9.035431783198899	3.59421884520018	0.564325339801071	11.84283019337066	
14	0.13	8.930646037598811	0.3851991946379697	6.913604618427893	9.666869914288931	-0.504130550823554	2.410057164801566	9.514351563478575	1.952395193096778	2.467253531612738	9.716003922752583	-0.9193061237137662	1.122301727801838	9.542650799438729	-1.220039783441165	2.043068365104201	9.791541525084034	-0.5865518048024859	-0.5457864308560862	4.290591813230543	0.6290351338272042	9.019323193437279	3.657809114341909	0.5449250799088738	11.81175411366361	
15	0.14	8.944002376603711	0.3754008864109628	6.953049930433647	9.673856446047949	-0.4969720725692162	2.404850494697685	9.508976517759429	1.941614916218801	2.45342845297732	9.714708177807983	-0.9393529314301662	1.117958785803333	9.55079084857039	-1.187444813402486	2.049179170872562	9.776218327089184	-0.5742801620710277	-0.539940358601018	4.347002050694728	0.6581926731330008	8.987446501315612	3.755089216118983	0.5128215672815718	11.76937995135011	
